<?xml version="1.0" encoding="UTF-8" standalone="no"?>
<svg
   width="49.879955"
   height="34.570446"
   fill="none"
   version="1.1"
   id="svg45"
   sodipodi:docname="hardhat-logo-only.svg"
   inkscape:version="1.2.2 (732a01da63, 2022-12-09)"
   xmlns:inkscape="http://www.inkscape.org/namespaces/inkscape"
   xmlns:sodipodi="http://sodipodi.sourceforge.net/DTD/sodipodi-0.dtd"
   xmlns="http://www.w3.org/2000/svg"
   xmlns:svg="http://www.w3.org/2000/svg">
  <sodipodi:namedview
     id="namedview47"
     pagecolor="#ffffff"
     bordercolor="#000000"
     borderopacity="0.25"
     inkscape:showpageshadow="2"
     inkscape:pageopacity="0.0"
     inkscape:pagecheckerboard="0"
     inkscape:deskcolor="#d1d1d1"
     showgrid="false"
     inkscape:zoom="9.3636364"
     inkscape:cx="68.776699"
     inkscape:cy="17.300971"
     inkscape:window-width="2560"
     inkscape:window-height="1334"
     inkscape:window-x="-11"
     inkscape:window-y="-11"
     inkscape:window-maximized="1"
     inkscape:current-layer="svg45" />
  <path
     d="m 49.875737,30.882446 v -2.42 c 0,-0.45 -0.757,-0.88 -2.116,-1.266 l 0.033,-3.014 c 0,-4.641 -1.44,-9.17 -4.126,-12.975 a 22.825,22.825 0 0 0 -10.886,-8.29 l -0.097,-0.604 a 1.722,1.722 0 0 0 -0.408,-0.872 1.747,1.747 0 0 0 -0.815,-0.521 23.147,23.147 0 0 0 -12.925,0 c -0.317,0.093 -0.6,0.273 -0.818,0.52 -0.217,0.246 -0.36,0.548 -0.41,0.872 l -0.093,0.563 a 22.83,22.83 0 0 0 -10.9620004,8.284 22.498,22.498 0 0 0 -4.159,13.022 v 3.027 c -1.33999999,0.385 -2.08699999,0.81 -2.08699999,1.256 v 2.421 a 0.59,0.59 0 0 0 0.087,0.408 5.852,5.852 0 0 1 2.24699999,-1.015 c 2.072,-0.5 4.179,-0.85 6.303,-1.046 a 4.25,4.25 0 0 1 3.3070004,1.057 8.95,8.95 0 0 0 6.009,2.313 h 13.964 a 8.943,8.943 0 0 0 6.008,-2.314 4.253,4.253 0 0 1 3.308,-1.069 c 2.123,0.195 4.23,0.543 6.302,1.042 0.77,0.146 1.498,0.462 2.13,0.924 0.035,0.035 0.078,0.066 0.108,0.1 a 0.6,0.6 0 0 0 0.096,-0.403 z"
     fill="#fff100"
     id="path4" />
  <path
     d="m 11.983737,25.787446 a 53.052,53.052 0 0 1 -0.03,-1.673 c 0.007,-8.416 1.992,-15.964 5.262,-21.235 a 22.83,22.83 0 0 0 -10.9620004,8.282 22.498,22.498 0 0 0 -4.16,13.02 v 3.027 a 55.919,55.919 0 0 1 9.8900004,-1.42 z"
     fill="url(#a)"
     id="path6"
     style="fill:url(#a)" />
  <path
     d="m 47.790737,24.181446 a 22.425,22.425 0 0 0 -5.215,-14.396 46.55,46.55 0 0 1 2.162,14.325 c 0,0.82 -0.022,1.63 -0.06,2.435 a 28.49,28.49 0 0 1 3.074,0.648 l 0.038,-3.012 z"
     fill="url(#b)"
     id="path8"
     style="fill:url(#b)" />
  <path
     d="m 47.541737,30.269446 c -2.073,-0.5 -4.18,-0.85 -6.303,-1.046 a 4.252,4.252 0 0 0 -3.308,1.063 8.943,8.943 0 0 1 -6.009,2.313 h -13.958 a 8.949,8.949 0 0 1 -6.006,-2.312 4.25,4.25 0 0 0 -3.3080004,-1.071 c -2.124,0.196 -4.23,0.545 -6.303,1.045 a 5.929,5.929 0 0 0 -2.24599999,1.015 c 1.05999999,1.607 11.78200039,3.294 24.84600039,3.294 13.065,0 23.782,-1.693 24.844,-3.293 -0.037,-0.033 -0.078,-0.064 -0.109,-0.099 a 5.462,5.462 0 0 0 -2.14,-0.909 z"
     fill="url(#c)"
     id="path10"
     style="fill:url(#c)" />
  <path
     d="m 24.939737,7.107446 -5.346,9.023 5.346,3.288 z"
     fill="#0a0a0a"
     id="path12" />
  <path
     d="m 24.941737,7.111446 v 12.305 l 5.345,-3.284 z m 0,14.093 v 4.29 c 0.1,-0.142 5.345,-7.58 5.345,-7.583 z"
     fill="#4b4d4d"
     id="path14" />
  <path
     d="m 24.941737,21.205446 -5.346,-3.288 5.346,7.58 v -4.294 z"
     fill="#0a0a0a"
     id="path16" />
  <defs
     id="defs43">
    <linearGradient
       id="a"
       x1="10.561"
       y1="27.919001"
       x2="10.561"
       y2="3.5899999"
       gradientUnits="userSpaceOnUse"
       gradientTransform="translate(-0.90626339,-0.710554)">
      <stop
         stop-color="#EDCF00"
         id="stop18" />
      <stop
         offset=".33"
         stop-color="#F0D500"
         id="stop20" />
      <stop
         offset=".77"
         stop-color="#F9E500"
         id="stop22" />
      <stop
         offset="1"
         stop-color="#FFF100"
         id="stop24" />
    </linearGradient>
    <linearGradient
       id="b"
       x1="46.089001"
       y1="28.096001"
       x2="46.089001"
       y2="10.496"
       gradientUnits="userSpaceOnUse"
       gradientTransform="translate(-0.90626339,-0.710554)">
      <stop
         stop-color="#EDCF00"
         id="stop27" />
      <stop
         offset=".59"
         stop-color="#F7E100"
         id="stop29" />
      <stop
         offset="1"
         stop-color="#FFF100"
         id="stop31" />
    </linearGradient>
    <radialGradient
       id="c"
       cx="0"
       cy="0"
       r="1"
       gradientUnits="userSpaceOnUse"
       gradientTransform="matrix(18.5398,0,0,18.4136,2.7947366,43.828446)">
      <stop
         stop-color="#FFF100"
         id="stop34" />
      <stop
         offset=".23"
         stop-color="#F9E500"
         id="stop36" />
      <stop
         offset=".67"
         stop-color="#F0D500"
         id="stop38" />
      <stop
         offset="1"
         stop-color="#EDCF00"
         id="stop40" />
    </radialGradient>
  </defs>
</svg>
